<svg width="169" height="93" xmlns="http://www.w3.org/2000/svg" xmlns:xlink="http://www.w3.org/1999/xlink" overflow="hidden"><defs><clipPath id="clip0"><rect x="443" y="224" width="169" height="93"/></clipPath></defs><g clip-path="url(#clip0)" transform="translate(-443 -224)"><path d="M517.451 228.809 527.703 228.809 532.575 229.012 536.229 229.317 538.665 229.621 540.289 229.926 541.812 230.433 543.436 231.245 545.263 232.463 546.684 233.681 547.496 234.392 549.932 236.828 550.642 237.64 551.86 239.162 552.672 240.279 552.977 240.583 553.992 239.264 554.804 238.452 555.819 237.944 557.341 237.64 560.488 237.437 562.417 237.437 564.751 237.64 565.462 237.944 565.563 238.046 565.563 238.756 564.954 239.873 563.939 240.989 562.924 241.7 561.909 242.106 558.965 242.106 555.108 241.903 559.574 243.019 561.097 243.628 562.214 244.237 562.823 244.745 563.533 245.76 564.041 247.282 564.548 250.023 564.853 252.967 564.954 254.388 565.056 257.433 565.157 266.669 565.868 267.075 566.071 267.583 566.071 268.801 565.766 270.12 565.056 271.338 564.548 271.744 563.939 271.947 563.736 273.977 563.533 274.485 563.026 274.688 560.589 274.789 542.218 274.992 513.087 275.195 495.426 275.195 491.061 275.094 491.061 274.891 492.177 274.789 496.847 274.586 515.218 274.18 541 273.774 550.135 273.673 550.033 271.643 524.962 271.643 489.234 271.846 489.132 271.44 490.147 271.034 491.771 270.628 492.786 270.526 539.579 269.917 546.379 269.714 548.612 269.613 549.221 269.511 548.714 268.293 548.511 268.192 537.955 267.989 522.729 267.583 516.436 267.38 507.504 266.872 506.997 266.771 506.997 266.568 512.275 266.466 520.598 266.365 538.056 266.06 546.481 265.959 545.77 265.248 545.161 264.538 544.755 264.233 533.286 264.03 520.09 263.726 512.579 263.421 507.403 263.117 506.794 263.015 506.895 262.812 542.725 262.711 541.609 261.899 540.797 261.594 537.244 261.29 530.85 260.985 522.425 260.681 518.872 260.579 512.985 260.478 507.504 260.478 506.489 260.681 505.88 261.087 504.561 262.203 503.038 263.624 502.328 264.132 502.023 264.03 502.226 263.523 502.937 262.711 504.662 260.985 506.083 259.869 507.2 259.26 507.707 259.158 512.579 258.955 519.786 258.752 530.85 258.752 536.432 258.955 539.782 259.158 542.218 259.463 543.639 259.869 545.364 260.782 546.785 261.797 547.902 262.711 549.12 263.827 549.932 264.538 550.845 265.451 551.556 266.263 552.774 267.786 553.586 269.207 553.687 269.41 553.687 270.526 563.939 270.425 564.244 270.12 564.65 268.801 564.853 268.09 561.604 268.09 557.544 267.887 555.514 267.684 555.21 267.583 555.108 267.278 555.514 267.075 557.037 266.872 560.386 266.669 563.026 266.669 563.026 265.553 563.229 261.29 563.229 254.083 562.214 255.504 561.097 256.722 560.285 257.433 559.067 258.042 557.24 258.346 553.18 258.651 551.556 258.752 546.176 258.752 544.349 258.549 543.639 258.245 543.334 257.839 543.436 257.23 544.045 256.418 545.161 255.2 546.278 254.286 547.496 253.373 549.323 252.256 551.048 251.343 553.484 250.429 555.92 249.82 558.052 249.516 559.473 249.414 562.721 249.414 562.315 247.587 561.807 246.267 561.198 245.354 560.082 244.643 558.559 244.034 556.631 243.527 553.89 243.019 551.251 242.715 545.77 242.715 543.842 243.019 542.827 243.527 542.015 244.542 540.898 246.267 539.477 248.501 538.361 250.328 537.346 251.85 536.128 253.474 535.214 254.997 534.808 255.2 535.214 253.576 535.925 251.749 536.331 250.937 537.853 247.485 538.361 245.658 538.361 244.542 537.65 244.237 536.128 243.933 535.722 243.831 533.286 243.73 527.906 243.628 523.541 243.628 517.147 243.73 513.493 243.831 510.651 244.034 509.737 244.339 509.23 244.846 509.128 245.151 509.128 246.267 509.534 247.688 510.651 250.328 511.564 252.459 512.376 254.591 512.376 255.2 511.767 254.692 510.143 252.155 508.722 249.82 507.2 247.384 506.286 246.064 505.17 244.846 504.764 244.542 502.734 244.136 495.933 243.019 494.208 242.816 494.208 242.715 495.324 242.613 502.226 242.816 506.591 242.816 507.707 242.106 508.418 241.497 508.621 241.395 525.673 241.395 527.602 241.497 526.485 240.076 525.571 238.959 524.353 237.538 523.44 236.422 522.222 235.001 521.308 233.884 520.09 232.463 518.771 230.738 518.669 230.433 515.218 230.433 510.448 230.636 506.997 230.941 504.561 231.347 502.937 231.854 501.313 232.666 500.095 233.478 498.674 234.493 497.253 235.61 495.933 236.726 495.121 237.437 493.903 238.553 493.193 239.264 492.99 239.264 493.193 238.756 494.106 237.538 495.223 236.219 496.441 234.899 497.963 233.377 499.384 232.26 500.907 231.245 502.835 230.332 504.865 229.824 507.707 229.418 511.057 229.114 514.711 228.911ZM527.703 230.535 527.906 230.941 529.936 232.26 532.372 233.783 534.301 235.001 536.331 236.219 536.94 236.625 537.143 236.625 536.94 236.117 536.229 235.305 535.113 234.087 534.402 233.275 533.489 232.26 532.271 230.941 531.256 230.738ZM536.128 231.245 536.534 231.753 537.65 232.666 538.97 233.783 540.391 234.899 541.812 236.117 543.233 237.234 544.857 238.553 546.278 239.771 547.597 240.888 548.409 241.497 549.729 241.598 549.932 241.497 549.729 241.091 546.684 238.046 545.872 237.335 544.755 236.32 543.943 235.61 541.406 233.58 539.579 232.362 537.955 231.55 536.737 231.245ZM561.198 250.632 561.3 252.358 560.995 254.286 560.894 254.895 561.3 254.692 562.417 252.764 562.924 251.647 563.026 250.937 562.924 250.835ZM558.965 250.734 556.225 251.14 554.195 251.647 552.165 252.358 550.541 253.17 548.714 254.185 547.496 254.997 545.872 256.215 544.857 257.128 544.755 257.534 548.917 257.534 555.413 257.128 558.153 256.824 559.27 256.418 559.777 255.403 560.183 254.083 560.386 252.865 560.386 251.85 560.082 250.937 559.98 250.734ZM536.432 251.343 536.331 252.053 536.128 252.967 536.432 252.662 536.838 251.749 536.635 251.343Z" fill="#FFFFFF"/><path d="M511.869 279.865 513.391 279.865 515.117 280.169 516.538 280.778 517.553 281.489 518.466 282.301 519.177 283.417 519.786 284.737 520.192 286.361 520.293 287.173 520.293 289.406 519.989 291.233 519.583 292.451 519.075 293.466 518.162 294.684 517.35 295.394 515.929 296.206 514.609 296.612 513.391 296.815 511.361 296.815 509.737 296.511 508.519 296.003 507.504 295.394 506.388 294.278 505.576 292.958 505.068 291.537 504.764 290.116 504.662 289 504.662 287.782 504.865 285.955 505.271 284.534 506.083 282.91 506.794 281.996 507.707 281.184 509.23 280.372 510.346 280.068ZM511.767 281.387 510.651 281.793 509.94 282.402 509.331 283.417 508.824 284.94 508.621 286.259 508.519 288.492 508.621 290.421 508.925 292.146 509.433 293.466 510.042 294.379 510.854 294.988 511.666 295.293 513.29 295.293 514.406 294.887 515.117 294.278 515.726 293.263 516.132 291.943 516.436 289.507 516.436 287.274 516.233 285.244 515.827 283.722 515.218 282.605 514.406 281.793 513.29 281.387Z" fill="#FFFFFF"/><path d="M465.99 280.169 473.806 280.169 473.907 280.271 473.907 281.286 472.385 281.489 471.979 281.692 471.877 281.895 471.877 292.654 472.182 293.669 472.588 294.278 473.501 294.887 474.415 295.09 475.937 295.09 476.952 294.785 477.764 294.176 478.272 293.263 478.373 292.755 478.475 285.955 478.373 281.59 476.445 281.286 476.343 281.184 476.343 280.271 476.445 280.169 482.332 280.169 482.433 280.271 482.433 281.184 482.332 281.286 480.809 281.489 480.403 281.59 480.302 289.203 480.2 292.958 479.794 294.278 479.185 295.191 478.373 295.902 477.358 296.409 476.14 296.714 475.328 296.815 473.298 296.815 471.573 296.511 470.355 296.003 469.543 295.394 468.832 294.582 468.426 293.77 468.122 292.654 468.02 282.504 467.817 281.692 467.411 281.489 465.99 281.286 465.889 281.184 465.889 280.271Z" fill="#FFFFFF"/><path d="M595.1 280.169 607.889 280.169 607.991 280.88 607.991 284.331 606.468 284.331 606.265 283.62 606.062 282.504 605.555 281.692 600.886 281.59 600.886 287.274 606.265 287.274 606.367 287.376 606.367 288.594 606.265 288.695 600.886 288.695 600.886 295.191 605.961 295.09 606.468 294.785 606.874 293.77 607.179 292.451 607.28 292.349 608.701 292.349 608.803 292.451 608.701 296.409 608.397 296.612 595.912 296.612 595.1 296.511 595.1 295.394 596.927 295.191 597.13 294.684 597.13 281.996 596.927 281.59 596.724 281.489 595.404 281.387 595.1 281.286Z" fill="#FFFFFF"/><path d="M563.635 280.169 566.781 280.169 567.289 281.387 569.217 286.868 570.841 291.436 571.755 293.973 572.262 294.887 572.668 295.191 573.683 295.394 573.785 295.496 573.785 296.511 573.582 296.612 566.781 296.612 566.172 296.511 566.172 295.394 567.695 295.191 567.898 294.988 567.999 294.481 567.492 292.552 567.086 291.334 566.883 291.233 561.3 291.233 561.198 291.943 560.691 293.669 560.589 294.684 560.894 295.191 562.417 295.394 562.518 295.496 562.518 296.511 562.417 296.612 556.834 296.612 556.529 296.511 556.529 295.394 557.544 295.191 558.052 294.785 558.661 293.567 560.386 288.797 561.097 286.97 561.807 284.94 563.533 280.271ZM564.244 282.808 563.026 286.462 561.909 289.71 562.01 289.812 566.477 289.812 566.375 289 564.954 284.534 564.447 282.808Z" fill="#FFFFFF"/><path d="M452.592 280.169 455.738 280.169 456.144 281.083 458.276 287.173 459.291 290.015 460.509 293.466 461.22 294.887 461.626 295.191 462.539 295.394 462.742 295.597 462.742 296.511 462.438 296.612 455.332 296.612 455.129 296.511 455.129 295.394 456.347 295.293 456.753 295.09 456.956 294.379 456.347 292.248 455.941 291.233 450.46 291.233 450.054 292.248 449.547 294.176 449.547 294.785 449.953 295.191 451.374 295.394 451.475 295.496 451.475 296.511 451.171 296.612 445.588 296.612 445.487 296.511 445.487 295.496 446.096 295.293 446.806 294.988 447.314 294.176 447.923 292.755 449.039 289.609 450.765 284.94 451.475 283.113 452.389 280.474ZM453.302 282.707 452.896 283.722 451.069 289.101 450.866 289.812 455.434 289.812 455.535 289.609 454.216 285.549 453.505 282.91Z" fill="#FFFFFF"/><path d="M545.77 279.966 548.511 279.966 550.135 280.372 551.15 280.981 551.759 281.793 551.86 282.098 551.86 283.011 551.454 283.722 550.947 284.128 550.033 284.432 549.12 284.534 548.714 283.011 548.206 282.098 547.394 281.489 546.887 281.387 546.176 281.387 545.263 281.692 544.755 282.199 544.451 282.808 544.451 284.026 544.755 284.737 545.263 285.244 546.075 285.853 547.699 286.665 549.323 287.376 550.947 288.391 551.759 289.203 552.368 290.421 552.571 291.537 552.469 292.857 552.063 293.973 551.454 294.785 550.642 295.597 549.729 296.105 548.714 296.511 547.09 296.815 544.958 296.815 543.537 296.511 542.421 296.105 541.609 295.496 541 294.481 540.898 294.176 540.898 292.958 541.304 292.248 541.812 291.842 542.827 291.436 543.436 291.436 543.74 293.06 544.146 294.075 544.755 294.785 545.77 295.293 547.394 295.293 548.308 294.988 549.018 294.379 549.323 293.77 549.424 292.857 549.221 291.943 548.815 291.334 547.8 290.624 543.74 288.695 542.725 287.883 541.913 286.97 541.406 285.752 541.304 285.143 541.304 284.026 541.507 283.113 542.015 282.098 542.725 281.286 543.842 280.575 544.755 280.169Z" fill="#FFFFFF"/><path d="M485.884 280.169 500.196 280.169 500.298 280.271 500.399 284.534 500.298 284.635 498.978 284.635 498.775 284.432 498.471 282.504 498.065 281.895 497.659 281.692 496.441 281.59 494.918 281.59 495.02 294.582 495.223 295.09 495.832 295.293 497.05 295.394 497.05 296.511 496.948 296.612 489.538 296.612 489.132 296.511 489.132 295.394 490.553 295.293 490.959 295.09 491.162 294.176 491.264 281.489 488.523 281.692 488.016 281.996 487.61 282.808 487.407 284.432 487.305 284.635 485.986 284.635 485.783 284.534 485.783 282.605Z" fill="#FFFFFF"/><path d="M531.256 280.169 534.504 280.169 534.504 290.827 536.838 290.827 536.94 291.131 536.838 292.248 536.635 292.349 534.504 292.248 534.605 294.278 534.91 294.887 535.417 295.191 536.635 295.394 536.737 295.8 536.635 296.612 528.718 296.612 528.617 296.511 528.617 295.394 530.342 295.191 530.85 294.684 531.053 293.77 531.053 292.349 524.759 292.248 524.759 290.928 525.368 289.812 527.094 286.97 528.008 285.447 529.327 283.316 530.342 281.59ZM531.154 282.605 530.241 284.229 528.515 287.173 526.789 290.015 526.383 290.725 526.586 290.827 531.053 290.827 531.154 290.421 531.256 282.605Z" fill="#FFFFFF"/><path d="M577.236 280.169 585.153 280.169 585.153 281.286 583.326 281.59 583.224 281.793 583.123 283.62 583.021 295.191 587.893 295.09 588.502 294.785 588.908 294.176 589.213 293.161 589.517 291.639 589.72 291.436 590.837 291.436 590.938 291.537 590.837 295.293 590.735 296.511 590.431 296.612 578.352 296.612 577.236 296.511 577.236 295.394 578.657 295.293 579.063 295.191 579.266 294.481 579.266 281.996 579.063 281.59 578.86 281.489 577.337 281.387 577.236 281.286Z" fill="#FFFFFF"/><path d="M451.678 304.529 479.287 304.529 481.926 304.631 482.027 304.935 481.926 306.052 481.824 306.154 451.678 306.154 451.577 306.052 451.577 304.631Z" fill="#FFFFFF"/><path d="M577.54 304.529 600.378 304.529 603.423 304.631 603.423 305.951 603.22 306.154 573.074 306.154 572.973 305.951 572.973 304.732 573.074 304.631Z" fill="#FFFFFF"/><path d="M491.467 252.155 492.279 252.256 495.02 253.068 498.471 254.286 501.414 255.504 503.546 256.519 504.358 257.128 504.561 257.331 504.561 258.042 504.053 258.549 503.647 258.752 502.835 258.854 492.888 258.854 492.786 258.549 493.193 258.143 493.396 258.042 503.241 257.737 503.14 257.433 501.211 256.316 496.948 254.489 494.309 253.474 492.279 252.662 491.467 252.256Z" fill="#FFFFFF"/><path d="M510.549 303.108 513.087 303.108 513.899 303.311 514.406 303.616 514.914 304.123 515.32 304.935 515.421 305.443 515.421 306.255 515.015 307.27 514.203 307.981 513.391 308.285 510.752 308.387 510.549 308.285ZM511.767 304.225 511.666 306.357 511.767 307.27 512.985 307.27 513.797 306.864 514.102 306.357 514.203 305.443 513.899 304.732 513.493 304.326 513.188 304.225Z" fill="#FFFFFF"/><path d="M541 303.108 543.639 303.108 544.552 303.413 545.06 304.022 545.263 304.631 545.161 305.646 544.755 306.255 544.451 306.458 544.552 306.966 545.263 308.184 545.161 308.387 544.146 308.387 543.74 307.981 543.03 306.864 542.319 306.763 542.218 308.285 541.507 308.387 541 308.285ZM542.218 304.123 542.218 305.646 542.319 305.747 543.233 305.747 543.842 305.443 544.045 305.138 543.943 304.428 543.537 304.123Z" fill="#FFFFFF"/><path d="M501.313 303.108 503.85 303.108 504.662 303.311 505.271 303.819 505.576 304.732 505.474 305.646 504.865 306.458 504.662 306.458 505.271 307.676 505.576 308.082 505.576 308.285 505.373 308.387 504.662 308.387 504.155 308.184 503.343 306.864 502.632 306.763 502.531 308.184 502.226 308.387 501.414 308.285 501.313 307.879ZM502.531 304.123 502.531 305.646 502.632 305.747 503.444 305.747 504.155 305.443 504.358 305.24 504.358 304.631 504.053 304.225 503.749 304.123Z" fill="#FFFFFF"/><path d="M553.281 303.108 554.398 303.108 554.499 303.21 554.499 305.138 556.529 305.138 556.529 303.21 556.631 303.108 557.646 303.108 557.747 303.21 557.747 308.285 557.646 308.387 556.631 308.285 556.631 306.255 554.499 306.255 554.499 308.285 554.296 308.387 553.383 308.387 553.281 308.285Z" fill="#FFFFFF"/><path d="M555.616 260.884 556.529 260.884 557.443 261.188 558.153 261.899 558.559 262.812 558.559 263.827 558.153 264.842 557.341 265.553 556.834 265.756 555.21 265.756 554.296 265.147 553.789 264.436 553.586 263.726 553.586 263.015 553.992 262 554.702 261.29 555.21 260.985ZM555.007 262.305 554.499 262.609 554.195 263.117 554.195 263.827 554.601 264.436 555.108 264.741 555.92 264.741 556.529 264.233 556.631 264.03 556.631 263.117 556.326 262.609 555.92 262.305Z" fill="#FFFFFF"/><path d="M489.234 303.007 490.452 303.007 491.467 303.413 492.279 304.326 492.482 304.732 492.482 305.037 491.264 305.037 490.756 304.428 490.35 304.225 489.538 304.225 488.828 304.428 488.625 304.834 488.422 305.443 488.523 306.458 488.929 306.966 489.741 307.27 490.452 307.169 490.959 306.864 491.365 306.357 492.482 306.357 492.482 306.864 491.771 307.778 490.959 308.285 490.655 308.387 489.132 308.387 488.32 308.082 487.711 307.575 487.204 306.56 487.102 306.052 487.102 305.24 487.407 304.326 488.117 303.514 488.929 303.108Z" fill="#FFFFFF"/><path d="M558.864 251.647 559.27 251.749 559.27 253.271 558.965 254.692 558.559 255.606 558.255 255.91 556.428 256.316 552.368 256.722 548.206 256.925 548.105 256.824 548.105 255.91 548.206 255.809 554.804 255.403 557.138 255.098 557.747 254.895 558.052 253.982 558.458 251.85Z" fill="#FFFFFF"/><path d="M524.861 303.108 525.977 303.108 526.789 305.037 527.906 307.981 527.906 308.387 526.891 308.387 526.688 308.184 526.485 307.575 524.252 307.575 523.947 308.285 523.744 308.387 522.729 308.285 523.034 307.372 524.353 304.022 524.759 303.21ZM525.267 304.732 524.861 305.747 524.658 306.458 524.759 306.56 526.079 306.56 525.774 305.443 525.47 304.732Z" fill="#FFFFFF"/><path d="M496.238 303.108 497.354 303.108 497.862 304.225 498.877 306.864 499.283 307.879 499.283 308.387 498.166 308.285 497.76 307.473 495.629 307.473 495.426 308.285 494.817 308.387 494.106 308.285 494.715 306.661 495.73 304.022 496.136 303.21ZM496.644 304.732 496.035 306.255 496.035 306.458 496.644 306.56 497.456 306.56 497.354 305.951 496.847 304.732Z" fill="#FFFFFF"/><path d="M548.511 303.007 549.627 303.007 550.642 303.413 551.048 304.022 551.15 304.631 551.048 304.732 550.236 304.732 549.729 304.225 549.018 304.022 548.308 304.225 548.511 304.732 548.917 305.037 550.439 305.544 551.048 306.052 551.251 306.458 551.251 307.27 550.845 307.981 550.033 308.387 549.526 308.488 548.815 308.488 547.902 308.184 547.293 307.473 547.09 306.763 547.191 306.661 547.902 306.661 548.409 306.966 548.815 307.372 549.627 307.372 549.932 307.067 549.932 306.56 549.424 306.357 547.902 305.849 547.394 305.341 547.191 304.935 547.191 304.022 547.8 303.311Z" fill="#FFFFFF"/><path d="M563.736 303.108 566.172 303.108 566.984 303.311 567.593 303.819 567.898 304.631 567.898 305.341 567.593 306.154 567.086 306.56 566.172 306.864 564.954 306.966 564.954 308.285 564.244 308.387 563.736 308.285ZM564.954 304.123 564.954 305.849 566.071 305.849 566.578 305.544 566.68 305.341 566.68 304.631 566.172 304.123Z" fill="#FFFFFF"/><path d="M535.316 303.108 538.767 303.108 538.767 304.022 538.665 304.123 536.534 304.123 536.534 305.24 538.462 305.138 538.665 305.443 538.665 306.052 538.564 306.154 536.534 306.154 536.534 307.372 538.868 307.372 538.868 308.285 538.767 308.387 535.417 308.387 535.316 308.285Z" fill="#FFFFFF"/><path d="M517.553 303.108 521.004 303.108 521.004 304.022 520.496 304.123 518.771 304.123 518.771 305.24 520.598 305.138 520.902 305.341 520.902 306.052 520.801 306.154 518.872 306.255 518.771 307.372 521.105 307.372 521.105 308.285 520.699 308.387 517.654 308.387 517.553 308.285Z" fill="#FFFFFF"/><path d="M529.835 303.108 530.951 303.108 531.053 303.21 531.154 307.169 533.387 307.27 533.387 308.285 532.677 308.387 529.936 308.387 529.835 308.285Z" fill="#FFFFFF"/><path d="M560.183 303.108 561.3 303.108 561.401 303.21 561.401 308.285 561.3 308.387 560.386 308.387 560.183 308.285Z" fill="#FFFFFF"/></g></svg>