<svg width="85" height="56" xmlns="http://www.w3.org/2000/svg" xmlns:xlink="http://www.w3.org/1999/xlink" overflow="hidden"><defs><clipPath id="clip0"><rect x="900" y="329" width="85" height="56"/></clipPath></defs><g clip-path="url(#clip0)" transform="translate(-900 -329)"><path d="M515.431 227.916 525.643 227.916 530.496 228.118 534.135 228.422 536.562 228.724 538.18 229.028 539.697 229.533 541.314 230.342 543.134 231.555 544.55 232.769 545.358 233.477 547.785 235.903 548.492 236.712 549.705 238.228 550.514 239.341 550.818 239.644 551.829 238.33 552.638 237.521 553.649 237.015 555.165 236.712 558.3 236.51 560.221 236.51 562.546 236.712 563.254 237.015 563.355 237.117 563.355 237.824 562.748 238.936 561.737 240.048 560.726 240.756 559.715 241.161 556.783 241.161 552.941 240.959 557.389 242.07 558.906 242.677 560.019 243.283 560.626 243.789 561.333 244.8 561.839 246.317 562.344 249.047 562.648 251.979 562.748 253.395 562.85 256.428 562.95 265.628 563.659 266.032 563.861 266.538 563.861 267.751 563.557 269.065 562.85 270.279 562.344 270.683 561.737 270.885 561.535 272.907 561.333 273.413 560.828 273.616 558.4 273.716 540.101 273.918 511.084 274.121 493.492 274.121 489.144 274.02 489.144 273.818 490.255 273.716 494.907 273.514 513.206 273.109 538.888 272.705 547.987 272.604 547.885 270.582 522.912 270.582 487.324 270.785 487.222 270.38 488.233 269.976 489.851 269.571 490.862 269.47 537.472 268.863 544.246 268.661 546.47 268.56 547.077 268.459 546.572 267.245 546.369 267.145 535.855 266.943 520.688 266.538 514.42 266.336 505.523 265.83 505.018 265.729 505.018 265.527 510.275 265.426 518.565 265.325 535.955 265.021 544.347 264.921 543.639 264.212 543.033 263.505 542.628 263.201 531.204 262.999 518.059 262.696 510.578 262.393 505.422 262.09 504.815 261.988 504.916 261.786 540.606 261.685 539.494 260.876 538.686 260.573 535.146 260.27 528.777 259.966 520.385 259.663 516.846 259.562 510.982 259.461 505.523 259.461 504.512 259.663 503.905 260.068 502.591 261.179 501.074 262.595 500.367 263.101 500.063 262.999 500.265 262.494 500.973 261.685 502.692 259.966 504.107 258.854 505.22 258.248 505.725 258.146 510.578 257.944 517.757 257.742 528.777 257.742 534.338 257.944 537.674 258.146 540.101 258.45 541.516 258.854 543.235 259.764 544.65 260.775 545.763 261.685 546.976 262.797 547.785 263.505 548.694 264.415 549.403 265.223 550.616 266.74 551.425 268.156 551.525 268.358 551.525 269.47 561.737 269.369 562.041 269.065 562.445 267.751 562.648 267.043 559.411 267.043 555.367 266.841 553.345 266.639 553.042 266.538 552.941 266.234 553.345 266.032 554.862 265.83 558.198 265.628 560.828 265.628 560.828 264.516 561.03 260.27 561.03 253.091 560.019 254.506 558.906 255.72 558.097 256.428 556.884 257.035 555.064 257.337 551.02 257.641 549.403 257.742 544.044 257.742 542.224 257.54 541.516 257.237 541.213 256.832 541.314 256.226 541.921 255.417 543.033 254.204 544.145 253.293 545.358 252.384 547.178 251.271 548.896 250.362 551.323 249.451 553.749 248.845 555.873 248.542 557.289 248.44 560.524 248.44 560.12 246.62 559.614 245.305 559.007 244.396 557.895 243.688 556.378 243.081 554.458 242.576 551.727 242.07 549.099 241.767 543.639 241.767 541.719 242.07 540.708 242.576 539.899 243.587 538.786 245.305 537.371 247.531 536.259 249.351 535.248 250.867 534.035 252.484 533.124 254.001 532.72 254.204 533.124 252.586 533.833 250.766 534.237 249.957 535.753 246.519 536.259 244.699 536.259 243.587 535.551 243.283 534.035 242.981 533.63 242.879 531.204 242.778 525.845 242.677 521.497 242.677 515.128 242.778 511.488 242.879 508.657 243.081 507.747 243.385 507.242 243.89 507.14 244.194 507.14 245.305 507.545 246.721 508.657 249.351 509.567 251.473 510.375 253.597 510.375 254.204 509.769 253.698 508.151 251.171 506.736 248.845 505.22 246.418 504.309 245.103 503.198 243.89 502.793 243.587 500.771 243.183 493.997 242.07 492.278 241.868 492.278 241.767 493.39 241.666 500.265 241.868 504.613 241.868 505.725 241.161 506.433 240.554 506.635 240.453 523.621 240.453 525.542 240.554 524.429 239.139 523.519 238.026 522.306 236.611 521.396 235.499 520.183 234.083 519.273 232.971 518.059 231.555 516.746 229.837 516.644 229.533 513.206 229.533 508.455 229.736 505.018 230.039 502.591 230.444 500.973 230.949 499.356 231.758 498.142 232.566 496.727 233.577 495.312 234.69 493.997 235.802 493.188 236.51 491.975 237.622 491.267 238.33 491.065 238.33 491.267 237.824 492.177 236.611 493.289 235.297 494.503 233.982 496.019 232.466 497.434 231.353 498.951 230.342 500.872 229.433 502.894 228.927 505.725 228.522 509.062 228.219 512.701 228.017ZM525.643 229.635 525.845 230.039 527.867 231.353 530.293 232.87 532.215 234.083 534.237 235.297 534.844 235.701 535.046 235.701 534.844 235.195 534.135 234.386 533.024 233.173 532.315 232.364 531.406 231.353 530.193 230.039 529.182 229.837ZM534.035 230.342 534.439 230.848 535.551 231.758 536.866 232.87 538.281 233.982 539.697 235.195 541.112 236.308 542.73 237.622 544.145 238.835 545.459 239.947 546.268 240.554 547.583 240.655 547.785 240.554 547.583 240.15 544.55 237.117 543.741 236.408 542.628 235.397 541.819 234.69 539.292 232.668 537.472 231.455 535.855 230.646 534.641 230.342ZM559.007 249.653 559.108 251.373 558.805 253.293 558.704 253.9 559.108 253.698 560.221 251.777 560.726 250.664 560.828 249.957 560.726 249.856ZM556.783 249.755 554.053 250.159 552.031 250.664 550.009 251.373 548.392 252.182 546.572 253.193 545.358 254.001 543.741 255.215 542.73 256.124 542.628 256.529 546.774 256.529 553.245 256.124 555.974 255.821 557.086 255.417 557.591 254.406 557.996 253.091 558.198 251.878 558.198 250.867 557.895 249.957 557.794 249.755ZM534.338 250.362 534.237 251.069 534.035 251.979 534.338 251.676 534.742 250.766 534.54 250.362Z" fill="#FFFFFF" transform="matrix(1 0 0 1.01001 416.565 103.641)"/><path d="M509.87 278.772 511.387 278.772 513.106 279.075 514.521 279.682 515.532 280.39 516.442 281.199 517.15 282.31 517.757 283.625 518.161 285.243 518.262 286.052 518.262 288.276 517.959 290.096 517.554 291.309 517.048 292.32 516.139 293.533 515.33 294.241 513.915 295.049 512.6 295.454 511.387 295.656 509.364 295.656 507.747 295.353 506.534 294.847 505.523 294.241 504.411 293.129 503.602 291.814 503.096 290.399 502.793 288.983 502.692 287.872 502.692 286.658 502.894 284.839 503.298 283.423 504.107 281.805 504.815 280.895 505.725 280.086 507.242 279.277 508.353 278.975ZM509.769 280.288 508.657 280.693 507.949 281.299 507.342 282.31 506.837 283.827 506.635 285.141 506.534 287.366 506.635 289.287 506.938 291.005 507.444 292.32 508.051 293.23 508.859 293.836 509.668 294.14 511.286 294.14 512.398 293.736 513.106 293.129 513.712 292.118 514.117 290.803 514.42 288.377 514.42 286.152 514.217 284.13 513.813 282.614 513.206 281.502 512.398 280.693 511.286 280.288Z" fill="#FFFFFF" transform="matrix(1 0 0 1.01001 416.565 103.641)"/><path d="M464.171 279.075 471.956 279.075 472.057 279.177 472.057 280.188 470.541 280.39 470.136 280.592 470.035 280.794 470.035 291.511 470.338 292.522 470.743 293.129 471.652 293.736 472.563 293.938 474.079 293.938 475.09 293.634 475.899 293.027 476.405 292.118 476.505 291.612 476.607 284.839 476.505 280.491 474.585 280.188 474.483 280.086 474.483 279.177 474.585 279.075 480.449 279.075 480.549 279.177 480.549 280.086 480.449 280.188 478.932 280.39 478.527 280.491 478.427 288.074 478.325 291.814 477.921 293.129 477.314 294.038 476.505 294.747 475.494 295.252 474.281 295.556 473.472 295.656 471.45 295.656 469.732 295.353 468.519 294.847 467.71 294.241 467.002 293.432 466.597 292.623 466.294 291.511 466.193 281.401 465.99 280.592 465.586 280.39 464.171 280.188 464.07 280.086 464.07 279.177Z" fill="#FFFFFF" transform="matrix(1 0 0 1.01001 416.565 103.641)"/><path d="M592.776 279.075 605.516 279.075 605.617 279.783 605.617 283.221 604.1 283.221 603.898 282.513 603.696 281.401 603.191 280.592 598.54 280.491 598.54 286.152 603.898 286.152 604 286.254 604 287.467 603.898 287.568 598.54 287.568 598.54 294.038 603.595 293.938 604.1 293.634 604.505 292.623 604.808 291.309 604.909 291.208 606.324 291.208 606.426 291.309 606.324 295.252 606.022 295.454 593.585 295.454 592.776 295.353 592.776 294.241 594.596 294.038 594.799 293.533 594.799 280.895 594.596 280.491 594.394 280.39 593.079 280.288 592.776 280.188Z" fill="#FFFFFF" transform="matrix(1 0 0 1.01001 416.565 103.641)"/><path d="M561.434 279.075 564.568 279.075 565.074 280.288 566.995 285.748 568.612 290.298 569.523 292.825 570.028 293.736 570.432 294.038 571.443 294.241 571.545 294.342 571.545 295.353 571.343 295.454 564.568 295.454 563.961 295.353 563.961 294.241 565.479 294.038 565.681 293.836 565.781 293.331 565.276 291.41 564.872 290.197 564.67 290.096 559.108 290.096 559.007 290.803 558.502 292.522 558.4 293.533 558.704 294.038 560.221 294.241 560.322 294.342 560.322 295.353 560.221 295.454 554.66 295.454 554.356 295.353 554.356 294.241 555.367 294.038 555.873 293.634 556.48 292.421 558.198 287.669 558.906 285.85 559.614 283.827 561.333 279.177ZM562.041 281.704 560.828 285.344 559.715 288.579 559.816 288.68 564.265 288.68 564.164 287.872 562.748 283.423 562.243 281.704Z" fill="#FFFFFF" transform="matrix(1 0 0 1.01001 416.565 103.641)"/><path d="M450.825 279.075 453.959 279.075 454.363 279.986 456.487 286.052 457.498 288.883 458.711 292.32 459.419 293.736 459.824 294.038 460.733 294.241 460.935 294.443 460.935 295.353 460.632 295.454 453.554 295.454 453.352 295.353 453.352 294.241 454.565 294.14 454.97 293.938 455.172 293.23 454.565 291.107 454.161 290.096 448.701 290.096 448.297 291.107 447.792 293.027 447.792 293.634 448.196 294.038 449.612 294.241 449.712 294.342 449.712 295.353 449.409 295.454 443.848 295.454 443.748 295.353 443.748 294.342 444.354 294.14 445.062 293.836 445.568 293.027 446.174 291.612 447.286 288.478 449.005 283.827 449.712 282.008 450.623 279.379ZM451.532 281.603 451.128 282.614 449.308 287.972 449.106 288.68 453.656 288.68 453.756 288.478 452.443 284.434 451.734 281.805Z" fill="#FFFFFF" transform="matrix(1 0 0 1.01001 416.565 103.641)"/><path d="M543.639 278.873 546.369 278.873 547.987 279.277 548.998 279.884 549.605 280.693 549.705 280.997 549.705 281.906 549.301 282.614 548.796 283.019 547.885 283.321 546.976 283.423 546.572 281.906 546.066 280.997 545.257 280.39 544.752 280.288 544.044 280.288 543.134 280.592 542.628 281.097 542.325 281.704 542.325 282.917 542.628 283.625 543.134 284.13 543.943 284.737 545.561 285.546 547.178 286.254 548.796 287.265 549.605 288.074 550.211 289.287 550.414 290.399 550.312 291.714 549.908 292.825 549.301 293.634 548.492 294.443 547.583 294.949 546.572 295.353 544.954 295.656 542.83 295.656 541.415 295.353 540.303 294.949 539.494 294.342 538.888 293.331 538.786 293.027 538.786 291.814 539.191 291.107 539.697 290.703 540.708 290.298 541.314 290.298 541.617 291.916 542.021 292.927 542.628 293.634 543.639 294.14 545.257 294.14 546.167 293.836 546.874 293.23 547.178 292.623 547.279 291.714 547.077 290.803 546.672 290.197 545.661 289.489 541.617 287.568 540.606 286.759 539.797 285.85 539.292 284.636 539.191 284.03 539.191 282.917 539.393 282.008 539.899 280.997 540.606 280.188 541.719 279.48 542.628 279.075Z" fill="#FFFFFF" transform="matrix(1 0 0 1.01001 416.565 103.641)"/><path d="M483.987 279.075 498.243 279.075 498.345 279.177 498.445 283.423 498.345 283.524 497.03 283.524 496.828 283.321 496.525 281.401 496.12 280.794 495.716 280.592 494.503 280.491 492.986 280.491 493.087 293.432 493.289 293.938 493.896 294.14 495.109 294.241 495.109 295.353 495.008 295.454 487.627 295.454 487.222 295.353 487.222 294.241 488.638 294.14 489.042 293.938 489.244 293.027 489.346 280.39 486.616 280.592 486.111 280.895 485.706 281.704 485.504 283.321 485.402 283.524 484.089 283.524 483.886 283.423 483.886 281.502Z" fill="#FFFFFF" transform="matrix(1 0 0 1.01001 416.565 103.641)"/><path d="M529.182 279.075 532.417 279.075 532.417 289.691 534.742 289.691 534.844 289.994 534.742 291.107 534.54 291.208 532.417 291.107 532.518 293.129 532.821 293.736 533.327 294.038 534.54 294.241 534.641 294.645 534.54 295.454 526.654 295.454 526.553 295.353 526.553 294.241 528.271 294.038 528.777 293.533 528.98 292.623 528.98 291.208 522.71 291.107 522.71 289.792 523.317 288.68 525.036 285.85 525.946 284.333 527.26 282.21 528.271 280.491ZM529.08 281.502 528.171 283.119 526.452 286.052 524.732 288.883 524.328 289.59 524.53 289.691 528.98 289.691 529.08 289.287 529.182 281.502Z" fill="#FFFFFF" transform="matrix(1 0 0 1.01001 416.565 103.641)"/><path d="M574.982 279.075 582.868 279.075 582.868 280.188 581.048 280.491 580.947 280.693 580.846 282.513 580.745 294.038 585.598 293.938 586.204 293.634 586.609 293.027 586.913 292.016 587.215 290.5 587.417 290.298 588.53 290.298 588.631 290.399 588.53 294.14 588.429 295.353 588.126 295.454 576.094 295.454 574.982 295.353 574.982 294.241 576.398 294.14 576.802 294.038 577.004 293.331 577.004 280.895 576.802 280.491 576.6 280.39 575.083 280.288 574.982 280.188Z" fill="#FFFFFF" transform="matrix(1 0 0 1.01001 416.565 103.641)"/><path d="M449.914 303.34 477.416 303.34 480.044 303.442 480.145 303.744 480.044 304.857 479.943 304.959 449.914 304.959 449.814 304.857 449.814 303.442Z" fill="#FFFFFF" transform="matrix(1 0 0 1.01001 416.565 103.641)"/><path d="M575.285 303.34 598.034 303.34 601.067 303.442 601.067 304.756 600.865 304.959 570.836 304.959 570.736 304.756 570.736 303.542 570.836 303.442Z" fill="#FFFFFF" transform="matrix(1 0 0 1.01001 416.565 103.641)"/><path d="M489.548 251.171 490.357 251.271 493.087 252.08 496.525 253.293 499.456 254.506 501.58 255.517 502.389 256.124 502.591 256.326 502.591 257.035 502.085 257.54 501.681 257.742 500.872 257.843 490.964 257.843 490.862 257.54 491.267 257.135 491.47 257.035 501.276 256.731 501.176 256.428 499.254 255.315 495.008 253.495 492.379 252.484 490.357 251.676 489.548 251.271Z" fill="#FFFFFF" transform="matrix(1 0 0 1.01001 416.565 103.641)"/><path d="M508.556 301.925 511.084 301.925 511.893 302.127 512.398 302.431 512.904 302.936 513.308 303.744 513.409 304.25 513.409 305.059 513.004 306.07 512.195 306.779 511.387 307.081 508.758 307.183 508.556 307.081ZM509.769 303.037 509.668 305.161 509.769 306.07 510.982 306.07 511.791 305.666 512.095 305.161 512.195 304.25 511.893 303.542 511.488 303.138 511.184 303.037Z" fill="#FFFFFF" transform="matrix(1 0 0 1.01001 416.565 103.641)"/><path d="M538.888 301.925 541.516 301.925 542.426 302.228 542.932 302.835 543.134 303.442 543.033 304.453 542.628 305.059 542.325 305.262 542.426 305.768 543.134 306.981 543.033 307.183 542.021 307.183 541.617 306.779 540.91 305.666 540.202 305.565 540.101 307.081 539.393 307.183 538.888 307.081ZM540.101 302.936 540.101 304.453 540.202 304.553 541.112 304.553 541.719 304.25 541.921 303.947 541.819 303.239 541.415 302.936Z" fill="#FFFFFF" transform="matrix(1 0 0 1.01001 416.565 103.641)"/><path d="M499.356 301.925 501.883 301.925 502.692 302.127 503.298 302.633 503.602 303.542 503.5 304.453 502.894 305.262 502.692 305.262 503.298 306.475 503.602 306.879 503.602 307.081 503.4 307.183 502.692 307.183 502.187 306.981 501.378 305.666 500.67 305.565 500.569 306.981 500.265 307.183 499.456 307.081 499.356 306.677ZM500.569 302.936 500.569 304.453 500.67 304.553 501.478 304.553 502.187 304.25 502.389 304.048 502.389 303.442 502.085 303.037 501.782 302.936Z" fill="#FFFFFF" transform="matrix(1 0 0 1.01001 416.565 103.641)"/><path d="M551.121 301.925 552.233 301.925 552.334 302.026 552.334 303.947 554.356 303.947 554.356 302.026 554.458 301.925 555.469 301.925 555.569 302.026 555.569 307.081 555.469 307.183 554.458 307.081 554.458 305.059 552.334 305.059 552.334 307.081 552.132 307.183 551.222 307.183 551.121 307.081Z" fill="#FFFFFF" transform="matrix(1 0 0 1.01001 416.565 103.641)"/><path d="M553.447 259.865 554.356 259.865 555.267 260.168 555.974 260.876 556.378 261.786 556.378 262.797 555.974 263.808 555.165 264.516 554.66 264.718 553.042 264.718 552.132 264.112 551.627 263.404 551.425 262.696 551.425 261.988 551.829 260.977 552.536 260.27 553.042 259.966ZM552.84 261.281 552.334 261.584 552.031 262.09 552.031 262.797 552.436 263.404 552.941 263.707 553.749 263.707 554.356 263.201 554.458 262.999 554.458 262.09 554.154 261.584 553.749 261.281Z" fill="#FFFFFF" transform="matrix(1 0 0 1.01001 416.565 103.641)"/><path d="M487.324 301.824 488.537 301.824 489.548 302.228 490.357 303.138 490.559 303.542 490.559 303.846 489.346 303.846 488.84 303.239 488.436 303.037 487.627 303.037 486.919 303.239 486.717 303.644 486.515 304.25 486.616 305.262 487.02 305.768 487.829 306.07 488.537 305.97 489.042 305.666 489.447 305.161 490.559 305.161 490.559 305.666 489.851 306.576 489.042 307.081 488.739 307.183 487.222 307.183 486.413 306.879 485.807 306.374 485.302 305.363 485.2 304.857 485.2 304.048 485.504 303.138 486.211 302.329 487.02 301.925Z" fill="#FFFFFF" transform="matrix(1 0 0 1.01001 416.565 103.641)"/><path d="M556.682 250.664 557.086 250.766 557.086 252.282 556.783 253.698 556.378 254.608 556.075 254.911 554.255 255.315 550.211 255.72 546.066 255.922 545.965 255.821 545.965 254.911 546.066 254.81 552.638 254.406 554.963 254.102 555.569 253.9 555.873 252.99 556.278 250.867Z" fill="#FFFFFF" transform="matrix(1 0 0 1.01001 416.565 103.641)"/><path d="M522.812 301.925 523.923 301.925 524.732 303.846 525.845 306.779 525.845 307.183 524.834 307.183 524.632 306.981 524.429 306.374 522.205 306.374 521.901 307.081 521.699 307.183 520.688 307.081 520.992 306.172 522.306 302.835 522.71 302.026ZM523.216 303.542 522.812 304.553 522.61 305.262 522.71 305.363 524.025 305.363 523.721 304.25 523.418 303.542Z" fill="#FFFFFF" transform="matrix(1 0 0 1.01001 416.565 103.641)"/><path d="M494.301 301.925 495.412 301.925 495.918 303.037 496.929 305.666 497.334 306.677 497.334 307.183 496.221 307.081 495.817 306.273 493.694 306.273 493.492 307.081 492.885 307.183 492.177 307.081 492.783 305.464 493.795 302.835 494.199 302.026ZM494.705 303.542 494.098 305.059 494.098 305.262 494.705 305.363 495.514 305.363 495.412 304.756 494.907 303.542Z" fill="#FFFFFF" transform="matrix(1 0 0 1.01001 416.565 103.641)"/><path d="M546.369 301.824 547.481 301.824 548.492 302.228 548.896 302.835 548.998 303.442 548.896 303.542 548.088 303.542 547.583 303.037 546.874 302.835 546.167 303.037 546.369 303.542 546.774 303.846 548.29 304.351 548.896 304.857 549.099 305.262 549.099 306.07 548.694 306.779 547.885 307.183 547.38 307.284 546.672 307.284 545.763 306.981 545.156 306.273 544.954 305.565 545.055 305.464 545.763 305.464 546.268 305.768 546.672 306.172 547.481 306.172 547.785 305.868 547.785 305.363 547.279 305.161 545.763 304.655 545.257 304.149 545.055 303.744 545.055 302.835 545.661 302.127Z" fill="#FFFFFF" transform="matrix(1 0 0 1.01001 416.565 103.641)"/><path d="M561.535 301.925 563.961 301.925 564.77 302.127 565.377 302.633 565.681 303.442 565.681 304.149 565.377 304.959 564.872 305.363 563.961 305.666 562.748 305.768 562.748 307.081 562.041 307.183 561.535 307.081ZM562.748 302.936 562.748 304.655 563.861 304.655 564.366 304.351 564.467 304.149 564.467 303.442 563.961 302.936Z" fill="#FFFFFF" transform="matrix(1 0 0 1.01001 416.565 103.641)"/><path d="M533.226 301.925 536.664 301.925 536.664 302.835 536.562 302.936 534.439 302.936 534.439 304.048 536.36 303.947 536.562 304.25 536.562 304.857 536.461 304.959 534.439 304.959 534.439 306.172 536.764 306.172 536.764 307.081 536.664 307.183 533.327 307.183 533.226 307.081Z" fill="#FFFFFF" transform="matrix(1 0 0 1.01001 416.565 103.641)"/><path d="M515.532 301.925 518.97 301.925 518.97 302.835 518.464 302.936 516.746 302.936 516.746 304.048 518.565 303.947 518.868 304.149 518.868 304.857 518.768 304.959 516.846 305.059 516.746 306.172 519.07 306.172 519.07 307.081 518.666 307.183 515.633 307.183 515.532 307.081Z" fill="#FFFFFF" transform="matrix(1 0 0 1.01001 416.565 103.641)"/><path d="M527.766 301.925 528.878 301.925 528.98 302.026 529.08 305.97 531.305 306.07 531.305 307.081 530.597 307.183 527.867 307.183 527.766 307.081Z" fill="#FFFFFF" transform="matrix(1 0 0 1.01001 416.565 103.641)"/><path d="M557.996 301.925 559.108 301.925 559.209 302.026 559.209 307.081 559.108 307.183 558.198 307.183 557.996 307.081Z" fill="#FFFFFF" transform="matrix(1 0 0 1.01001 416.565 103.641)"/></g></svg>