<svg width="169" height="93" xmlns="http://www.w3.org/2000/svg" xmlns:xlink="http://www.w3.org/1999/xlink" overflow="hidden"><defs><clipPath id="clip0"><rect x="188" y="224" width="169" height="93"/></clipPath></defs><g clip-path="url(#clip0)" transform="translate(-188 -224)"><path d="M262.451 228.809 272.703 228.809 277.575 229.012 281.229 229.317 283.665 229.621 285.289 229.926 286.812 230.433 288.436 231.245 290.263 232.463 291.684 233.681 292.496 234.392 294.932 236.828 295.642 237.64 296.86 239.162 297.672 240.279 297.977 240.583 298.992 239.264 299.804 238.452 300.819 237.944 302.341 237.64 305.488 237.437 307.417 237.437 309.751 237.64 310.462 237.944 310.563 238.046 310.563 238.756 309.954 239.873 308.939 240.989 307.924 241.7 306.909 242.106 303.965 242.106 300.108 241.903 304.574 243.019 306.097 243.628 307.214 244.237 307.823 244.745 308.533 245.76 309.041 247.282 309.548 250.023 309.853 252.967 309.954 254.388 310.056 257.433 310.157 266.669 310.868 267.075 311.071 267.583 311.071 268.801 310.766 270.12 310.056 271.338 309.548 271.744 308.939 271.947 308.736 273.977 308.533 274.485 308.026 274.688 305.589 274.789 287.218 274.992 258.087 275.195 240.426 275.195 236.061 275.094 236.061 274.891 237.177 274.789 241.847 274.586 260.218 274.18 286 273.774 295.135 273.673 295.033 271.643 269.962 271.643 234.234 271.846 234.132 271.44 235.147 271.034 236.771 270.628 237.786 270.526 284.579 269.917 291.379 269.714 293.612 269.613 294.221 269.511 293.714 268.293 293.511 268.192 282.955 267.989 267.729 267.583 261.436 267.38 252.504 266.872 251.997 266.771 251.997 266.568 257.275 266.466 265.598 266.365 283.056 266.06 291.481 265.959 290.77 265.248 290.161 264.538 289.755 264.233 278.286 264.03 265.09 263.726 257.579 263.421 252.403 263.117 251.794 263.015 251.895 262.812 287.725 262.711 286.609 261.899 285.797 261.594 282.244 261.29 275.85 260.985 267.425 260.681 263.872 260.579 257.985 260.478 252.504 260.478 251.489 260.681 250.88 261.087 249.561 262.203 248.038 263.624 247.328 264.132 247.023 264.03 247.226 263.523 247.937 262.711 249.662 260.985 251.083 259.869 252.2 259.26 252.707 259.158 257.579 258.955 264.786 258.752 275.85 258.752 281.432 258.955 284.782 259.158 287.218 259.463 288.639 259.869 290.364 260.782 291.785 261.797 292.902 262.711 294.12 263.827 294.932 264.538 295.845 265.451 296.556 266.263 297.774 267.786 298.586 269.207 298.687 269.41 298.687 270.526 308.939 270.425 309.244 270.12 309.65 268.801 309.853 268.09 306.604 268.09 302.544 267.887 300.514 267.684 300.21 267.583 300.108 267.278 300.514 267.075 302.037 266.872 305.386 266.669 308.026 266.669 308.026 265.553 308.229 261.29 308.229 254.083 307.214 255.504 306.097 256.722 305.285 257.433 304.067 258.042 302.24 258.346 298.18 258.651 296.556 258.752 291.176 258.752 289.349 258.549 288.639 258.245 288.334 257.839 288.436 257.23 289.045 256.418 290.161 255.2 291.278 254.286 292.496 253.373 294.323 252.256 296.048 251.343 298.484 250.429 300.92 249.82 303.052 249.516 304.473 249.414 307.721 249.414 307.315 247.587 306.807 246.267 306.198 245.354 305.082 244.643 303.559 244.034 301.631 243.527 298.89 243.019 296.251 242.715 290.77 242.715 288.842 243.019 287.827 243.527 287.015 244.542 285.898 246.267 284.477 248.501 283.361 250.328 282.346 251.85 281.128 253.474 280.214 254.997 279.808 255.2 280.214 253.576 280.925 251.749 281.331 250.937 282.853 247.485 283.361 245.658 283.361 244.542 282.65 244.237 281.128 243.933 280.722 243.831 278.286 243.73 272.906 243.628 268.541 243.628 262.147 243.73 258.493 243.831 255.651 244.034 254.737 244.339 254.23 244.846 254.128 245.151 254.128 246.267 254.534 247.688 255.651 250.328 256.564 252.459 257.376 254.591 257.376 255.2 256.767 254.692 255.143 252.155 253.722 249.82 252.2 247.384 251.286 246.064 250.17 244.846 249.764 244.542 247.734 244.136 240.933 243.019 239.208 242.816 239.208 242.715 240.324 242.613 247.226 242.816 251.591 242.816 252.707 242.106 253.418 241.497 253.621 241.395 270.673 241.395 272.602 241.497 271.485 240.076 270.571 238.959 269.353 237.538 268.44 236.422 267.222 235.001 266.308 233.884 265.09 232.463 263.771 230.738 263.669 230.433 260.218 230.433 255.448 230.636 251.997 230.941 249.561 231.347 247.937 231.854 246.313 232.666 245.095 233.478 243.674 234.493 242.253 235.61 240.933 236.726 240.121 237.437 238.903 238.553 238.192 239.264 237.989 239.264 238.192 238.756 239.106 237.538 240.223 236.219 241.441 234.899 242.963 233.377 244.384 232.26 245.907 231.245 247.835 230.332 249.865 229.824 252.707 229.418 256.057 229.114 259.711 228.911ZM272.703 230.535 272.906 230.941 274.936 232.26 277.372 233.783 279.301 235.001 281.331 236.219 281.94 236.625 282.143 236.625 281.94 236.117 281.229 235.305 280.113 234.087 279.402 233.275 278.489 232.26 277.271 230.941 276.256 230.738ZM281.128 231.245 281.534 231.753 282.65 232.666 283.97 233.783 285.391 234.899 286.812 236.117 288.233 237.234 289.857 238.553 291.278 239.771 292.597 240.888 293.409 241.497 294.729 241.598 294.932 241.497 294.729 241.091 291.684 238.046 290.872 237.335 289.755 236.32 288.943 235.61 286.406 233.58 284.579 232.362 282.955 231.55 281.737 231.245ZM306.198 250.632 306.3 252.358 305.995 254.286 305.894 254.895 306.3 254.692 307.417 252.764 307.924 251.647 308.026 250.937 307.924 250.835ZM303.965 250.734 301.225 251.14 299.195 251.647 297.165 252.358 295.541 253.17 293.714 254.185 292.496 254.997 290.872 256.215 289.857 257.128 289.755 257.534 293.917 257.534 300.413 257.128 303.153 256.824 304.27 256.418 304.777 255.403 305.183 254.083 305.386 252.865 305.386 251.85 305.082 250.937 304.98 250.734ZM281.432 251.343 281.331 252.053 281.128 252.967 281.432 252.662 281.838 251.749 281.635 251.343Z"/><path d="M256.869 279.865 258.391 279.865 260.117 280.169 261.538 280.778 262.553 281.489 263.466 282.301 264.177 283.417 264.786 284.737 265.192 286.361 265.293 287.173 265.293 289.406 264.989 291.233 264.583 292.451 264.075 293.466 263.162 294.684 262.35 295.394 260.929 296.206 259.609 296.612 258.391 296.815 256.361 296.815 254.737 296.511 253.519 296.003 252.504 295.394 251.388 294.278 250.576 292.958 250.068 291.537 249.764 290.116 249.662 289 249.662 287.782 249.865 285.955 250.271 284.534 251.083 282.91 251.794 281.996 252.707 281.184 254.23 280.372 255.346 280.068ZM256.767 281.387 255.651 281.793 254.94 282.402 254.331 283.417 253.824 284.94 253.621 286.259 253.519 288.492 253.621 290.421 253.925 292.146 254.433 293.466 255.042 294.379 255.854 294.988 256.666 295.293 258.29 295.293 259.406 294.887 260.117 294.278 260.726 293.263 261.132 291.943 261.436 289.507 261.436 287.274 261.233 285.244 260.827 283.722 260.218 282.605 259.406 281.793 258.29 281.387Z"/><path d="M210.99 280.169 218.806 280.169 218.907 280.271 218.907 281.286 217.385 281.489 216.979 281.692 216.877 281.895 216.877 292.654 217.182 293.669 217.588 294.278 218.501 294.887 219.415 295.09 220.937 295.09 221.952 294.785 222.764 294.176 223.272 293.263 223.373 292.755 223.475 285.955 223.373 281.59 221.445 281.286 221.343 281.184 221.343 280.271 221.445 280.169 227.332 280.169 227.433 280.271 227.433 281.184 227.332 281.286 225.809 281.489 225.403 281.59 225.302 289.203 225.2 292.958 224.794 294.278 224.185 295.191 223.373 295.902 222.358 296.409 221.14 296.714 220.328 296.815 218.298 296.815 216.573 296.511 215.355 296.003 214.543 295.394 213.832 294.582 213.426 293.77 213.122 292.654 213.02 282.504 212.817 281.692 212.411 281.489 210.99 281.286 210.889 281.184 210.889 280.271Z"/><path d="M340.1 280.169 352.889 280.169 352.991 280.88 352.991 284.331 351.468 284.331 351.265 283.62 351.062 282.504 350.555 281.692 345.886 281.59 345.886 287.274 351.265 287.274 351.367 287.376 351.367 288.594 351.265 288.695 345.886 288.695 345.886 295.191 350.961 295.09 351.468 294.785 351.874 293.77 352.179 292.451 352.28 292.349 353.701 292.349 353.803 292.451 353.701 296.409 353.397 296.612 340.912 296.612 340.1 296.511 340.1 295.394 341.927 295.191 342.13 294.684 342.13 281.996 341.927 281.59 341.724 281.489 340.405 281.387 340.1 281.286Z"/><path d="M308.635 280.169 311.781 280.169 312.289 281.387 314.217 286.868 315.841 291.436 316.755 293.973 317.262 294.887 317.668 295.191 318.683 295.394 318.785 295.496 318.785 296.511 318.582 296.612 311.781 296.612 311.172 296.511 311.172 295.394 312.695 295.191 312.898 294.988 312.999 294.481 312.492 292.552 312.086 291.334 311.883 291.233 306.3 291.233 306.198 291.943 305.691 293.669 305.589 294.684 305.894 295.191 307.417 295.394 307.518 295.496 307.518 296.511 307.417 296.612 301.834 296.612 301.529 296.511 301.529 295.394 302.544 295.191 303.052 294.785 303.661 293.567 305.386 288.797 306.097 286.97 306.807 284.94 308.533 280.271ZM309.244 282.808 308.026 286.462 306.909 289.71 307.01 289.812 311.477 289.812 311.375 289 309.954 284.534 309.447 282.808Z"/><path d="M197.592 280.169 200.738 280.169 201.144 281.083 203.276 287.173 204.291 290.015 205.509 293.466 206.22 294.887 206.626 295.191 207.539 295.394 207.742 295.597 207.742 296.511 207.438 296.612 200.332 296.612 200.129 296.511 200.129 295.394 201.347 295.293 201.753 295.09 201.956 294.379 201.347 292.248 200.941 291.233 195.46 291.233 195.054 292.248 194.547 294.176 194.547 294.785 194.953 295.191 196.374 295.394 196.475 295.496 196.475 296.511 196.171 296.612 190.588 296.612 190.487 296.511 190.487 295.496 191.096 295.293 191.806 294.988 192.314 294.176 192.923 292.755 194.039 289.609 195.765 284.94 196.475 283.113 197.389 280.474ZM198.302 282.707 197.896 283.722 196.069 289.101 195.866 289.812 200.434 289.812 200.535 289.609 199.216 285.549 198.505 282.91Z"/><path d="M290.77 279.966 293.511 279.966 295.135 280.372 296.15 280.981 296.759 281.793 296.86 282.098 296.86 283.011 296.454 283.722 295.947 284.128 295.033 284.432 294.12 284.534 293.714 283.011 293.206 282.098 292.394 281.489 291.887 281.387 291.176 281.387 290.263 281.692 289.755 282.199 289.451 282.808 289.451 284.026 289.755 284.737 290.263 285.244 291.075 285.853 292.699 286.665 294.323 287.376 295.947 288.391 296.759 289.203 297.368 290.421 297.571 291.537 297.469 292.857 297.063 293.973 296.454 294.785 295.642 295.597 294.729 296.105 293.714 296.511 292.09 296.815 289.958 296.815 288.537 296.511 287.421 296.105 286.609 295.496 286 294.481 285.898 294.176 285.898 292.958 286.304 292.248 286.812 291.842 287.827 291.436 288.436 291.436 288.74 293.06 289.146 294.075 289.755 294.785 290.77 295.293 292.394 295.293 293.308 294.988 294.018 294.379 294.323 293.77 294.424 292.857 294.221 291.943 293.815 291.334 292.8 290.624 288.74 288.695 287.725 287.883 286.913 286.97 286.406 285.752 286.304 285.143 286.304 284.026 286.507 283.113 287.015 282.098 287.725 281.286 288.842 280.575 289.755 280.169Z"/><path d="M230.884 280.169 245.196 280.169 245.298 280.271 245.399 284.534 245.298 284.635 243.978 284.635 243.775 284.432 243.471 282.504 243.065 281.895 242.659 281.692 241.441 281.59 239.918 281.59 240.02 294.582 240.223 295.09 240.832 295.293 242.05 295.394 242.05 296.511 241.948 296.612 234.538 296.612 234.132 296.511 234.132 295.394 235.553 295.293 235.959 295.09 236.162 294.176 236.264 281.489 233.523 281.692 233.016 281.996 232.61 282.808 232.407 284.432 232.305 284.635 230.986 284.635 230.783 284.534 230.783 282.605Z"/><path d="M276.256 280.169 279.504 280.169 279.504 290.827 281.838 290.827 281.94 291.131 281.838 292.248 281.635 292.349 279.504 292.248 279.605 294.278 279.91 294.887 280.417 295.191 281.635 295.394 281.737 295.8 281.635 296.612 273.718 296.612 273.617 296.511 273.617 295.394 275.342 295.191 275.85 294.684 276.053 293.77 276.053 292.349 269.759 292.248 269.759 290.928 270.368 289.812 272.094 286.97 273.008 285.447 274.327 283.316 275.342 281.59ZM276.154 282.605 275.241 284.229 273.515 287.173 271.789 290.015 271.383 290.725 271.586 290.827 276.053 290.827 276.154 290.421 276.256 282.605Z"/><path d="M322.236 280.169 330.153 280.169 330.153 281.286 328.326 281.59 328.224 281.793 328.123 283.62 328.021 295.191 332.893 295.09 333.502 294.785 333.908 294.176 334.213 293.161 334.517 291.639 334.72 291.436 335.837 291.436 335.938 291.537 335.837 295.293 335.735 296.511 335.431 296.612 323.352 296.612 322.236 296.511 322.236 295.394 323.657 295.293 324.063 295.191 324.266 294.481 324.266 281.996 324.063 281.59 323.86 281.489 322.337 281.387 322.236 281.286Z"/><path d="M196.678 304.529 224.287 304.529 226.926 304.631 227.027 304.935 226.926 306.052 226.824 306.154 196.678 306.154 196.577 306.052 196.577 304.631Z"/><path d="M322.54 304.529 345.378 304.529 348.423 304.631 348.423 305.951 348.22 306.154 318.074 306.154 317.973 305.951 317.973 304.732 318.074 304.631Z"/><path d="M236.467 252.155 237.279 252.256 240.02 253.068 243.471 254.286 246.414 255.504 248.546 256.519 249.358 257.128 249.561 257.331 249.561 258.042 249.053 258.549 248.647 258.752 247.835 258.854 237.888 258.854 237.786 258.549 238.192 258.143 238.395 258.042 248.241 257.737 248.14 257.433 246.211 256.316 241.948 254.489 239.309 253.474 237.279 252.662 236.467 252.256Z"/><path d="M255.549 303.108 258.087 303.108 258.899 303.311 259.406 303.616 259.914 304.123 260.32 304.935 260.421 305.443 260.421 306.255 260.015 307.27 259.203 307.981 258.391 308.285 255.752 308.387 255.549 308.285ZM256.767 304.225 256.666 306.357 256.767 307.27 257.985 307.27 258.797 306.864 259.102 306.357 259.203 305.443 258.899 304.732 258.493 304.326 258.188 304.225Z"/><path d="M286 303.108 288.639 303.108 289.552 303.413 290.06 304.022 290.263 304.631 290.161 305.646 289.755 306.255 289.451 306.458 289.552 306.966 290.263 308.184 290.161 308.387 289.146 308.387 288.74 307.981 288.03 306.864 287.319 306.763 287.218 308.285 286.507 308.387 286 308.285ZM287.218 304.123 287.218 305.646 287.319 305.747 288.233 305.747 288.842 305.443 289.045 305.138 288.943 304.428 288.537 304.123Z"/><path d="M246.313 303.108 248.85 303.108 249.662 303.311 250.271 303.819 250.576 304.732 250.474 305.646 249.865 306.458 249.662 306.458 250.271 307.676 250.576 308.082 250.576 308.285 250.373 308.387 249.662 308.387 249.155 308.184 248.343 306.864 247.632 306.763 247.531 308.184 247.226 308.387 246.414 308.285 246.313 307.879ZM247.531 304.123 247.531 305.646 247.632 305.747 248.444 305.747 249.155 305.443 249.358 305.24 249.358 304.631 249.053 304.225 248.749 304.123Z"/><path d="M298.281 303.108 299.398 303.108 299.499 303.21 299.499 305.138 301.529 305.138 301.529 303.21 301.631 303.108 302.646 303.108 302.747 303.21 302.747 308.285 302.646 308.387 301.631 308.285 301.631 306.255 299.499 306.255 299.499 308.285 299.296 308.387 298.383 308.387 298.281 308.285Z"/><path d="M300.616 260.884 301.529 260.884 302.443 261.188 303.153 261.899 303.559 262.812 303.559 263.827 303.153 264.842 302.341 265.553 301.834 265.756 300.21 265.756 299.296 265.147 298.789 264.436 298.586 263.726 298.586 263.015 298.992 262 299.702 261.29 300.21 260.985ZM300.007 262.305 299.499 262.609 299.195 263.117 299.195 263.827 299.601 264.436 300.108 264.741 300.92 264.741 301.529 264.233 301.631 264.03 301.631 263.117 301.326 262.609 300.92 262.305Z"/><path d="M234.234 303.007 235.452 303.007 236.467 303.413 237.279 304.326 237.482 304.732 237.482 305.037 236.264 305.037 235.756 304.428 235.35 304.225 234.538 304.225 233.828 304.428 233.625 304.834 233.422 305.443 233.523 306.458 233.929 306.966 234.741 307.27 235.452 307.169 235.959 306.864 236.365 306.357 237.482 306.357 237.482 306.864 236.771 307.778 235.959 308.285 235.655 308.387 234.132 308.387 233.32 308.082 232.711 307.575 232.204 306.56 232.102 306.052 232.102 305.24 232.407 304.326 233.117 303.514 233.929 303.108Z"/><path d="M303.864 251.647 304.27 251.749 304.27 253.271 303.965 254.692 303.559 255.606 303.255 255.91 301.428 256.316 297.368 256.722 293.206 256.925 293.105 256.824 293.105 255.91 293.206 255.809 299.804 255.403 302.138 255.098 302.747 254.895 303.052 253.982 303.458 251.85Z"/><path d="M269.861 303.108 270.977 303.108 271.789 305.037 272.906 307.981 272.906 308.387 271.891 308.387 271.688 308.184 271.485 307.575 269.252 307.575 268.947 308.285 268.744 308.387 267.729 308.285 268.034 307.372 269.353 304.022 269.759 303.21ZM270.267 304.732 269.861 305.747 269.658 306.458 269.759 306.56 271.079 306.56 270.774 305.443 270.47 304.732Z"/><path d="M241.238 303.108 242.354 303.108 242.862 304.225 243.877 306.864 244.283 307.879 244.283 308.387 243.166 308.285 242.76 307.473 240.629 307.473 240.426 308.285 239.817 308.387 239.106 308.285 239.715 306.661 240.73 304.022 241.136 303.21ZM241.644 304.732 241.035 306.255 241.035 306.458 241.644 306.56 242.456 306.56 242.354 305.951 241.847 304.732Z"/><path d="M293.511 303.007 294.627 303.007 295.642 303.413 296.048 304.022 296.15 304.631 296.048 304.732 295.236 304.732 294.729 304.225 294.018 304.022 293.308 304.225 293.511 304.732 293.917 305.037 295.439 305.544 296.048 306.052 296.251 306.458 296.251 307.27 295.845 307.981 295.033 308.387 294.526 308.488 293.815 308.488 292.902 308.184 292.293 307.473 292.09 306.763 292.191 306.661 292.902 306.661 293.409 306.966 293.815 307.372 294.627 307.372 294.932 307.067 294.932 306.56 294.424 306.357 292.902 305.849 292.394 305.341 292.191 304.935 292.191 304.022 292.8 303.311Z"/><path d="M308.736 303.108 311.172 303.108 311.984 303.311 312.593 303.819 312.898 304.631 312.898 305.341 312.593 306.154 312.086 306.56 311.172 306.864 309.954 306.966 309.954 308.285 309.244 308.387 308.736 308.285ZM309.954 304.123 309.954 305.849 311.071 305.849 311.578 305.544 311.68 305.341 311.68 304.631 311.172 304.123Z"/><path d="M280.316 303.108 283.767 303.108 283.767 304.022 283.665 304.123 281.534 304.123 281.534 305.24 283.462 305.138 283.665 305.443 283.665 306.052 283.564 306.154 281.534 306.154 281.534 307.372 283.868 307.372 283.868 308.285 283.767 308.387 280.417 308.387 280.316 308.285Z"/><path d="M262.553 303.108 266.004 303.108 266.004 304.022 265.496 304.123 263.771 304.123 263.771 305.24 265.598 305.138 265.902 305.341 265.902 306.052 265.801 306.154 263.872 306.255 263.771 307.372 266.105 307.372 266.105 308.285 265.699 308.387 262.654 308.387 262.553 308.285Z"/><path d="M274.835 303.108 275.951 303.108 276.053 303.21 276.154 307.169 278.387 307.27 278.387 308.285 277.677 308.387 274.936 308.387 274.835 308.285Z"/><path d="M305.183 303.108 306.3 303.108 306.401 303.21 306.401 308.285 306.3 308.387 305.386 308.387 305.183 308.285Z"/></g></svg>