<svg width="91" height="56" xmlns="http://www.w3.org/2000/svg" xmlns:xlink="http://www.w3.org/1999/xlink" overflow="hidden"><defs><clipPath id="clip0"><rect x="596" y="313" width="91" height="56"/></clipPath></defs><g clip-path="url(#clip0)" transform="translate(-596 -313)"><path d="M263.234 229.491 273.516 229.491 278.403 229.695 282.068 230.001 284.511 230.306 286.14 230.612 287.667 231.12 289.296 231.935 291.129 233.156 292.554 234.378 293.368 235.091 295.812 237.534 296.524 238.349 297.745 239.875 298.56 240.996 298.866 241.301 299.884 239.978 300.698 239.163 301.716 238.654 303.243 238.349 306.399 238.145 308.334 238.145 310.675 238.349 311.388 238.654 311.489 238.756 311.489 239.468 310.878 240.588 309.86 241.708 308.842 242.421 307.824 242.828 304.872 242.828 301.003 242.624 305.482 243.744 307.01 244.355 308.13 244.965 308.741 245.475 309.453 246.493 309.963 248.02 310.471 250.769 310.777 253.721 310.878 255.147 310.981 258.201 311.082 267.464 311.795 267.872 311.999 268.381 311.999 269.603 311.693 270.926 310.981 272.147 310.471 272.554 309.86 272.758 309.657 274.794 309.453 275.304 308.945 275.507 306.5 275.609 288.075 275.812 258.857 276.016 241.143 276.016 236.765 275.914 236.765 275.711 237.884 275.609 242.568 275.405 260.994 274.998 286.853 274.591 296.015 274.489 295.913 272.453 270.767 272.453 234.933 272.657 234.83 272.25 235.848 271.842 237.477 271.435 238.495 271.333 285.428 270.722 292.248 270.518 294.488 270.417 295.099 270.315 294.59 269.093 294.386 268.992 283.799 268.788 268.527 268.381 262.216 268.177 253.257 267.668 252.749 267.567 252.749 267.363 258.042 267.261 266.39 267.159 283.9 266.854 292.35 266.752 291.637 266.039 291.026 265.327 290.619 265.021 279.116 264.817 265.881 264.513 258.347 264.207 253.156 263.902 252.545 263.799 252.646 263.596 288.583 263.495 287.464 262.68 286.649 262.374 283.086 262.069 276.673 261.763 268.223 261.458 264.659 261.356 258.754 261.255 253.257 261.255 252.239 261.458 251.628 261.866 250.305 262.985 248.778 264.41 248.066 264.92 247.76 264.817 247.963 264.309 248.676 263.495 250.407 261.763 251.832 260.644 252.952 260.033 253.461 259.931 258.347 259.727 265.576 259.524 276.673 259.524 282.271 259.727 285.631 259.931 288.075 260.237 289.5 260.644 291.23 261.56 292.655 262.578 293.776 263.495 294.997 264.614 295.812 265.327 296.727 266.243 297.44 267.057 298.662 268.585 299.477 270.01 299.578 270.214 299.578 271.333 309.86 271.232 310.166 270.926 310.574 269.603 310.777 268.89 307.518 268.89 303.446 268.686 301.41 268.482 301.105 268.381 301.003 268.075 301.41 267.872 302.938 267.668 306.297 267.464 308.945 267.464 308.945 266.345 309.148 262.069 309.148 254.841 308.13 256.266 307.01 257.488 306.196 258.201 304.974 258.812 303.141 259.117 299.069 259.422 297.44 259.524 292.044 259.524 290.212 259.32 289.5 259.015 289.194 258.608 289.296 257.997 289.907 257.183 291.026 255.961 292.147 255.044 293.368 254.129 295.201 253.008 296.931 252.093 299.374 251.176 301.818 250.565 303.956 250.26 305.381 250.158 308.639 250.158 308.232 248.325 307.722 247.001 307.111 246.086 305.992 245.373 304.464 244.762 302.531 244.253 299.781 243.744 297.135 243.439 291.637 243.439 289.703 243.744 288.685 244.253 287.871 245.271 286.751 247.001 285.325 249.242 284.206 251.075 283.188 252.601 281.966 254.23 281.05 255.758 280.643 255.961 281.05 254.332 281.763 252.5 282.17 251.685 283.697 248.223 284.206 246.391 284.206 245.271 283.493 244.965 281.966 244.661 281.559 244.558 279.116 244.457 273.72 244.355 269.342 244.355 262.929 244.457 259.264 244.558 256.413 244.762 255.497 245.068 254.988 245.576 254.886 245.882 254.886 247.001 255.293 248.427 256.413 251.075 257.329 253.212 258.144 255.35 258.144 255.961 257.533 255.452 255.904 252.907 254.479 250.565 252.952 248.122 252.035 246.798 250.916 245.576 250.509 245.271 248.473 244.864 241.652 243.744 239.921 243.54 239.921 243.439 241.041 243.337 247.963 243.54 252.341 243.54 253.461 242.828 254.174 242.217 254.377 242.115 271.48 242.115 273.415 242.217 272.295 240.792 271.378 239.672 270.156 238.246 269.241 237.127 268.019 235.702 267.102 234.582 265.881 233.156 264.558 231.426 264.455 231.12 260.994 231.12 256.21 231.324 252.749 231.63 250.305 232.037 248.676 232.546 247.048 233.36 245.826 234.174 244.401 235.192 242.976 236.313 241.652 237.432 240.837 238.145 239.616 239.264 238.902 239.978 238.699 239.978 238.902 239.468 239.819 238.246 240.939 236.924 242.161 235.6 243.688 234.073 245.113 232.953 246.64 231.935 248.574 231.019 250.61 230.509 253.461 230.102 256.821 229.797 260.486 229.594ZM273.516 231.223 273.72 231.63 275.756 232.953 278.199 234.48 280.134 235.702 282.17 236.924 282.781 237.331 282.984 237.331 282.781 236.821 282.068 236.007 280.948 234.785 280.235 233.971 279.32 232.953 278.098 231.63 277.08 231.426ZM281.966 231.935 282.374 232.444 283.493 233.36 284.817 234.48 286.242 235.6 287.667 236.821 289.093 237.942 290.721 239.264 292.147 240.486 293.47 241.606 294.284 242.217 295.608 242.319 295.812 242.217 295.608 241.81 292.554 238.756 291.74 238.043 290.619 237.025 289.805 236.313 287.26 234.277 285.428 233.055 283.799 232.241 282.577 231.935ZM307.111 251.38 307.214 253.111 306.908 255.044 306.806 255.655 307.214 255.452 308.334 253.518 308.842 252.398 308.945 251.685 308.842 251.583ZM304.872 251.482 302.123 251.889 300.087 252.398 298.051 253.111 296.422 253.925 294.59 254.943 293.368 255.758 291.74 256.979 290.721 257.895 290.619 258.302 294.794 258.302 301.309 257.895 304.057 257.59 305.177 257.183 305.686 256.165 306.093 254.841 306.297 253.619 306.297 252.601 305.992 251.685 305.89 251.482ZM282.271 252.093 282.17 252.805 281.966 253.721 282.271 253.416 282.679 252.5 282.475 252.093Z" transform="matrix(1.00069 0 0 1 366.661 88.3319)"/><path d="M257.635 280.7 259.162 280.7 260.893 281.005 262.318 281.615 263.336 282.329 264.252 283.143 264.965 284.262 265.576 285.586 265.983 287.215 266.084 288.03 266.084 290.269 265.779 292.102 265.372 293.323 264.863 294.341 263.947 295.563 263.132 296.275 261.707 297.089 260.383 297.497 259.162 297.7 257.126 297.7 255.497 297.395 254.275 296.886 253.257 296.275 252.138 295.156 251.323 293.832 250.814 292.406 250.509 290.981 250.407 289.862 250.407 288.64 250.61 286.808 251.017 285.383 251.832 283.754 252.545 282.837 253.461 282.023 254.988 281.208 256.108 280.903ZM257.533 282.226 256.413 282.633 255.7 283.244 255.09 284.262 254.581 285.79 254.377 287.113 254.275 289.352 254.377 291.287 254.682 293.017 255.192 294.341 255.803 295.257 256.617 295.868 257.431 296.174 259.06 296.174 260.18 295.766 260.893 295.156 261.504 294.138 261.911 292.814 262.216 290.37 262.216 288.131 262.012 286.095 261.605 284.568 260.994 283.448 260.18 282.633 259.06 282.226Z" transform="matrix(1.00069 0 0 1 366.661 88.3319)"/><path d="M211.619 281.005 219.459 281.005 219.56 281.107 219.56 282.125 218.033 282.329 217.626 282.532 217.524 282.736 217.524 293.527 217.83 294.545 218.237 295.156 219.153 295.766 220.069 295.97 221.596 295.97 222.614 295.664 223.428 295.053 223.938 294.138 224.039 293.628 224.142 286.808 224.039 282.43 222.105 282.125 222.003 282.023 222.003 281.107 222.105 281.005 228.01 281.005 228.111 281.107 228.111 282.023 228.01 282.125 226.482 282.329 226.075 282.43 225.974 290.066 225.872 293.832 225.464 295.156 224.854 296.071 224.039 296.785 223.021 297.293 221.8 297.599 220.985 297.7 218.949 297.7 217.219 297.395 215.997 296.886 215.183 296.275 214.47 295.461 214.063 294.646 213.758 293.527 213.655 283.347 213.452 282.532 213.045 282.329 211.619 282.125 211.518 282.023 211.518 281.107Z" transform="matrix(1.00069 0 0 1 366.661 88.3319)"/><path d="M341.114 281.005 353.941 281.005 354.044 281.718 354.044 285.179 352.516 285.179 352.313 284.466 352.109 283.347 351.601 282.532 346.918 282.43 346.918 288.131 352.313 288.131 352.415 288.233 352.415 289.455 352.313 289.556 346.918 289.556 346.918 296.071 352.008 295.97 352.516 295.664 352.923 294.646 353.229 293.323 353.331 293.221 354.756 293.221 354.858 293.323 354.756 297.293 354.451 297.497 341.929 297.497 341.114 297.395 341.114 296.275 342.947 296.071 343.15 295.563 343.15 282.837 342.947 282.43 342.743 282.329 341.42 282.226 341.114 282.125Z" transform="matrix(1.00069 0 0 1 366.661 88.3319)"/><path d="M309.556 281.005 312.711 281.005 313.22 282.226 315.154 287.724 316.783 292.305 317.7 294.85 318.208 295.766 318.615 296.071 319.633 296.275 319.736 296.377 319.736 297.395 319.532 297.497 312.711 297.497 312.1 297.395 312.1 296.275 313.628 296.071 313.831 295.868 313.933 295.359 313.424 293.425 313.017 292.203 312.813 292.102 307.214 292.102 307.111 292.814 306.603 294.545 306.5 295.563 306.806 296.071 308.334 296.275 308.435 296.377 308.435 297.395 308.334 297.497 302.734 297.497 302.428 297.395 302.428 296.275 303.446 296.071 303.956 295.664 304.567 294.443 306.297 289.658 307.01 287.826 307.722 285.79 309.453 281.107ZM310.166 283.651 308.945 287.316 307.824 290.574 307.926 290.676 312.406 290.676 312.304 289.862 310.878 285.383 310.37 283.651Z" transform="matrix(1.00069 0 0 1 366.661 88.3319)"/><path d="M198.181 281.005 201.337 281.005 201.744 281.921 203.882 288.03 204.9 290.88 206.122 294.341 206.835 295.766 207.242 296.071 208.158 296.275 208.362 296.479 208.362 297.395 208.057 297.497 200.929 297.497 200.726 297.395 200.726 296.275 201.948 296.174 202.355 295.97 202.558 295.257 201.948 293.12 201.54 292.102 196.043 292.102 195.636 293.12 195.127 295.053 195.127 295.664 195.534 296.071 196.96 296.275 197.061 296.377 197.061 297.395 196.756 297.497 191.156 297.497 191.055 297.395 191.055 296.377 191.666 296.174 192.378 295.868 192.888 295.053 193.498 293.628 194.618 290.473 196.349 285.79 197.061 283.957 197.978 281.311ZM198.893 283.55 198.486 284.568 196.654 289.963 196.45 290.676 201.032 290.676 201.133 290.473 199.81 286.401 199.097 283.754Z" transform="matrix(1.00069 0 0 1 366.661 88.3319)"/><path d="M291.637 280.801 294.386 280.801 296.015 281.208 297.033 281.819 297.644 282.633 297.745 282.939 297.745 283.855 297.338 284.568 296.83 284.975 295.913 285.28 294.997 285.383 294.59 283.855 294.08 282.939 293.266 282.329 292.758 282.226 292.044 282.226 291.129 282.532 290.619 283.041 290.314 283.651 290.314 284.873 290.619 285.586 291.129 286.095 291.943 286.706 293.572 287.52 295.201 288.233 296.83 289.251 297.644 290.066 298.255 291.287 298.459 292.406 298.356 293.73 297.949 294.85 297.338 295.664 296.524 296.479 295.608 296.988 294.59 297.395 292.961 297.7 290.823 297.7 289.398 297.395 288.278 296.988 287.464 296.377 286.853 295.359 286.751 295.053 286.751 293.832 287.158 293.12 287.667 292.712 288.685 292.305 289.296 292.305 289.601 293.934 290.008 294.952 290.619 295.664 291.637 296.174 293.266 296.174 294.183 295.868 294.895 295.257 295.201 294.646 295.302 293.73 295.099 292.814 294.691 292.203 293.673 291.491 289.601 289.556 288.583 288.742 287.769 287.826 287.26 286.604 287.158 285.993 287.158 284.873 287.361 283.957 287.871 282.939 288.583 282.125 289.703 281.412 290.619 281.005Z" transform="matrix(1.00069 0 0 1 366.661 88.3319)"/><path d="M231.573 281.005 245.927 281.005 246.03 281.107 246.131 285.383 246.03 285.484 244.706 285.484 244.502 285.28 244.197 283.347 243.79 282.736 243.383 282.532 242.161 282.43 240.634 282.43 240.736 295.461 240.939 295.97 241.55 296.174 242.772 296.275 242.772 297.395 242.67 297.497 235.238 297.497 234.83 297.395 234.83 296.275 236.256 296.174 236.663 295.97 236.866 295.053 236.969 282.329 234.219 282.532 233.711 282.837 233.304 283.651 233.1 285.28 232.998 285.484 231.675 285.484 231.471 285.383 231.471 283.448Z" transform="matrix(1.00069 0 0 1 366.661 88.3319)"/><path d="M277.08 281.005 280.338 281.005 280.338 291.694 282.679 291.694 282.781 291.999 282.679 293.12 282.475 293.221 280.338 293.12 280.439 295.156 280.745 295.766 281.253 296.071 282.475 296.275 282.577 296.682 282.475 297.497 274.534 297.497 274.433 297.395 274.433 296.275 276.163 296.071 276.673 295.563 276.876 294.646 276.876 293.221 270.564 293.12 270.564 291.796 271.174 290.676 272.906 287.826 273.822 286.298 275.145 284.161 276.163 282.43ZM276.978 283.448 276.062 285.077 274.331 288.03 272.6 290.88 272.192 291.592 272.396 291.694 276.876 291.694 276.978 291.287 277.08 283.448Z" transform="matrix(1.00069 0 0 1 366.661 88.3319)"/><path d="M323.197 281.005 331.138 281.005 331.138 282.125 329.305 282.43 329.203 282.633 329.102 284.466 328.999 296.071 333.886 295.97 334.497 295.664 334.904 295.053 335.21 294.035 335.515 292.509 335.718 292.305 336.839 292.305 336.94 292.406 336.839 296.174 336.736 297.395 336.431 297.497 324.316 297.497 323.197 297.395 323.197 296.275 324.622 296.174 325.03 296.071 325.233 295.359 325.233 282.837 325.03 282.43 324.826 282.329 323.298 282.226 323.197 282.125Z" transform="matrix(1.00069 0 0 1 366.661 88.3319)"/><path d="M197.265 305.437 224.956 305.437 227.603 305.54 227.704 305.844 227.603 306.965 227.501 307.067 197.265 307.067 197.163 306.965 197.163 305.54Z" transform="matrix(1.00069 0 0 1 366.661 88.3319)"/><path d="M323.502 305.437 346.408 305.437 349.462 305.54 349.462 306.863 349.259 307.067 319.023 307.067 318.921 306.863 318.921 305.641 319.023 305.54Z" transform="matrix(1.00069 0 0 1 366.661 88.3319)"/><path d="M237.172 252.907 237.987 253.008 240.736 253.823 244.197 255.044 247.149 256.266 249.287 257.284 250.102 257.895 250.305 258.098 250.305 258.812 249.796 259.32 249.389 259.524 248.574 259.626 238.598 259.626 238.495 259.32 238.902 258.913 239.106 258.812 248.981 258.506 248.88 258.201 246.945 257.08 242.67 255.248 240.023 254.23 237.987 253.416 237.172 253.008Z" transform="matrix(1.00069 0 0 1 366.661 88.3319)"/><path d="M256.311 304.012 258.857 304.012 259.671 304.216 260.18 304.522 260.689 305.03 261.096 305.844 261.198 306.354 261.198 307.168 260.79 308.186 259.976 308.9 259.162 309.204 256.515 309.307 256.311 309.204ZM257.533 305.132 257.431 307.271 257.533 308.186 258.754 308.186 259.569 307.779 259.875 307.271 259.976 306.354 259.671 305.641 259.264 305.234 258.958 305.132Z" transform="matrix(1.00069 0 0 1 366.661 88.3319)"/><path d="M286.853 304.012 289.5 304.012 290.416 304.318 290.925 304.929 291.129 305.54 291.026 306.558 290.619 307.168 290.314 307.372 290.416 307.882 291.129 309.103 291.026 309.307 290.008 309.307 289.601 308.9 288.889 307.779 288.176 307.678 288.075 309.204 287.361 309.307 286.853 309.204ZM288.075 305.03 288.075 306.558 288.176 306.659 289.093 306.659 289.703 306.354 289.907 306.048 289.805 305.336 289.398 305.03Z" transform="matrix(1.00069 0 0 1 366.661 88.3319)"/><path d="M247.048 304.012 249.592 304.012 250.407 304.216 251.017 304.725 251.323 305.641 251.221 306.558 250.61 307.372 250.407 307.372 251.017 308.594 251.323 309.001 251.323 309.204 251.12 309.307 250.407 309.307 249.898 309.103 249.084 307.779 248.371 307.678 248.269 309.103 247.963 309.307 247.149 309.204 247.048 308.797ZM248.269 305.03 248.269 306.558 248.371 306.659 249.185 306.659 249.898 306.354 250.102 306.15 250.102 305.54 249.796 305.132 249.491 305.03Z" transform="matrix(1.00069 0 0 1 366.661 88.3319)"/><path d="M299.171 304.012 300.291 304.012 300.392 304.114 300.392 306.048 302.428 306.048 302.428 304.114 302.531 304.012 303.549 304.012 303.65 304.114 303.65 309.204 303.549 309.307 302.531 309.204 302.531 307.168 300.392 307.168 300.392 309.204 300.189 309.307 299.273 309.307 299.171 309.204Z" transform="matrix(1.00069 0 0 1 366.661 88.3319)"/><path d="M301.513 261.662 302.428 261.662 303.345 261.967 304.057 262.68 304.464 263.596 304.464 264.614 304.057 265.632 303.243 266.345 302.734 266.549 301.105 266.549 300.189 265.938 299.68 265.225 299.477 264.513 299.477 263.799 299.884 262.781 300.596 262.069 301.105 261.763ZM300.902 263.087 300.392 263.392 300.087 263.902 300.087 264.614 300.495 265.225 301.003 265.531 301.818 265.531 302.428 265.021 302.531 264.817 302.531 263.902 302.225 263.392 301.818 263.087Z" transform="matrix(1.00069 0 0 1 366.661 88.3319)"/><path d="M234.933 303.911 236.154 303.911 237.172 304.318 237.987 305.234 238.19 305.641 238.19 305.947 236.969 305.947 236.459 305.336 236.052 305.132 235.238 305.132 234.525 305.336 234.322 305.743 234.118 306.354 234.219 307.372 234.627 307.882 235.441 308.186 236.154 308.085 236.663 307.779 237.07 307.271 238.19 307.271 238.19 307.779 237.477 308.696 236.663 309.204 236.358 309.307 234.83 309.307 234.016 309.001 233.405 308.492 232.897 307.474 232.794 306.965 232.794 306.15 233.1 305.234 233.812 304.419 234.627 304.012Z" transform="matrix(1.00069 0 0 1 366.661 88.3319)"/><path d="M304.77 252.398 305.177 252.5 305.177 254.026 304.872 255.452 304.464 256.368 304.159 256.673 302.327 257.08 298.255 257.488 294.08 257.691 293.979 257.59 293.979 256.673 294.08 256.572 300.698 256.165 303.039 255.859 303.65 255.655 303.956 254.74 304.363 252.601Z" transform="matrix(1.00069 0 0 1 366.661 88.3319)"/><path d="M270.666 304.012 271.785 304.012 272.6 305.947 273.72 308.9 273.72 309.307 272.702 309.307 272.498 309.103 272.295 308.492 270.055 308.492 269.749 309.204 269.546 309.307 268.527 309.204 268.833 308.289 270.156 304.929 270.564 304.114ZM271.073 305.641 270.666 306.659 270.462 307.372 270.564 307.474 271.888 307.474 271.582 306.354 271.277 305.641Z" transform="matrix(1.00069 0 0 1 366.661 88.3319)"/><path d="M241.958 304.012 243.077 304.012 243.586 305.132 244.604 307.779 245.012 308.797 245.012 309.307 243.891 309.204 243.484 308.39 241.347 308.39 241.143 309.204 240.532 309.307 239.819 309.204 240.43 307.576 241.448 304.929 241.855 304.114ZM242.365 305.641 241.754 307.168 241.754 307.372 242.365 307.474 243.179 307.474 243.077 306.863 242.568 305.641Z" transform="matrix(1.00069 0 0 1 366.661 88.3319)"/><path d="M294.386 303.911 295.506 303.911 296.524 304.318 296.931 304.929 297.033 305.54 296.931 305.641 296.117 305.641 295.608 305.132 294.895 304.929 294.183 305.132 294.386 305.641 294.794 305.947 296.32 306.455 296.931 306.965 297.135 307.372 297.135 308.186 296.727 308.9 295.913 309.307 295.404 309.408 294.691 309.408 293.776 309.103 293.165 308.39 292.961 307.678 293.062 307.576 293.776 307.576 294.284 307.882 294.691 308.289 295.506 308.289 295.812 307.983 295.812 307.474 295.302 307.271 293.776 306.761 293.266 306.252 293.062 305.844 293.062 304.929 293.673 304.216Z" transform="matrix(1.00069 0 0 1 366.661 88.3319)"/><path d="M309.657 304.012 312.1 304.012 312.914 304.216 313.525 304.725 313.831 305.54 313.831 306.252 313.525 307.067 313.017 307.474 312.1 307.779 310.878 307.882 310.878 309.204 310.166 309.307 309.657 309.204ZM310.878 305.03 310.878 306.761 311.999 306.761 312.507 306.455 312.61 306.252 312.61 305.54 312.1 305.03Z" transform="matrix(1.00069 0 0 1 366.661 88.3319)"/><path d="M281.152 304.012 284.613 304.012 284.613 304.929 284.511 305.03 282.374 305.03 282.374 306.15 284.307 306.048 284.511 306.354 284.511 306.965 284.41 307.067 282.374 307.067 282.374 308.289 284.715 308.289 284.715 309.204 284.613 309.307 281.253 309.307 281.152 309.204Z" transform="matrix(1.00069 0 0 1 366.661 88.3319)"/><path d="M263.336 304.012 266.797 304.012 266.797 304.929 266.288 305.03 264.558 305.03 264.558 306.15 266.39 306.048 266.695 306.252 266.695 306.965 266.594 307.067 264.659 307.168 264.558 308.289 266.899 308.289 266.899 309.204 266.491 309.307 263.437 309.307 263.336 309.204Z" transform="matrix(1.00069 0 0 1 366.661 88.3319)"/><path d="M275.655 304.012 276.774 304.012 276.876 304.114 276.978 308.085 279.217 308.186 279.217 309.204 278.505 309.307 275.756 309.307 275.655 309.204Z" transform="matrix(1.00069 0 0 1 366.661 88.3319)"/><path d="M306.093 304.012 307.214 304.012 307.315 304.114 307.315 309.204 307.214 309.307 306.297 309.307 306.093 309.204Z" transform="matrix(1.00069 0 0 1 366.661 88.3319)"/></g></svg>